<?xml version="1.0" encoding="UTF-8" standalone="no" ?>
<!DOCTYPE svg PUBLIC "-//W3C//DTD SVG 1.1//EN" "http://www.w3.org/Graphics/SVG/1.1/DTD/svg11.dtd">
<svg xmlns="http://www.w3.org/2000/svg" xmlns:xlink="http://www.w3.org/1999/xlink" version="1.1" width="1080" height="1080" viewBox="0 0 1080 1080" xml:space="preserve">
<desc>Created with Fabric.js 5.2.4</desc>
<defs>
</defs>
<rect x="0" y="0" width="100%" height="100%" fill="transparent"></rect>
<g transform="matrix(1 0 0 1 540 540)" id="54703570-a7c7-40f4-8b31-b9e305183212"  >
<rect style="stroke: none; stroke-width: 1; stroke-dasharray: none; stroke-linecap: butt; stroke-dashoffset: 0; stroke-linejoin: miter; stroke-miterlimit: 4; fill: rgb(255,255,255); fill-rule: nonzero; opacity: 1; visibility: hidden;" vector-effect="non-scaling-stroke"  x="-540" y="-540" rx="0" ry="0" width="1080" height="1080" />
</g>
<g transform="matrix(1 0 0 1 540 540)" id="78c39ba0-d8a4-4356-8935-b854fda7288d"  >
</g>
<g transform="matrix(15.12 0 0 15.12 539.84 539.93)" id="3ecd1173-ff61-43c3-8930-abc448be28d5"  >
<circle style="stroke: rgb(0,0,0); stroke-width: 0; stroke-dasharray: none; stroke-linecap: butt; stroke-dashoffset: 0; stroke-linejoin: miter; stroke-miterlimit: 4; fill: rgb(255,255,255); fill-rule: nonzero; opacity: 1;" vector-effect="non-scaling-stroke"  cx="0" cy="0" r="35" />
</g>
<g transform="matrix(37.36 0 0 37.36 539.7 490.55)" id="57fa4b65-ae53-4833-8913-50a879c0607e"  >
<path style="stroke: rgb(0,0,0); stroke-width: 0; stroke-dasharray: none; stroke-linecap: butt; stroke-dashoffset: 0; stroke-linejoin: miter; stroke-miterlimit: 4; fill: rgb(61,220,132); fill-rule: nonzero; opacity: 1;" vector-effect="non-scaling-stroke"  transform=" translate(-12, -12)" d="M 19.2693 10.3368 C 18.9372 10.3368 18.666700000000002 10.6073 18.666700000000002 10.9399 L 18.666700000000002 20.7723 L 16.928800000000003 20.7723 L 13.593300000000003 13.8327 C 14.069300000000002 13.294 14.273000000000003 12.546700000000001 14.117600000000003 11.831800000000001 C 13.972383859970028 11.115188162496379 13.493163103101168 10.511265192077916 12.828300000000002 10.207 L 12.828300000000002 9.3946 C 12.840400000000002 9.1075 12.685700000000002 8.815900000000001 12.424000000000003 8.6539 C 12.284900000000004 8.5714 12.135600000000004 8.5305 11.983800000000002 8.5305 C 11.83187592611238 8.530499468796748 11.682742868964732 8.57132282997056 11.552000000000001 8.6487 C 11.281900000000002 8.8158 11.127200000000002 9.1074 11.139700000000001 9.4149 L 11.139400000000002 10.1359 C 10.124500000000001 10.502699999999999 9.477500000000003 11.5512 9.652700000000003 12.6556 C 9.723612504012268 13.10937466329533 9.9297989331238 13.531192505002037 10.2443 13.8659 L 7.034700000000003 20.7723 L 4.0928 20.7723 C 2.9979000000000005 20.7653 2.1131 19.8775 2.1096000000000004 18.782700000000002 L 2.1096000000000004 5.016 C 2.1041000000000003 6.1184 2.9932000000000003 7.0166 4.0955 7.0222 C 4.139728554348704 7.022415806278595 4.183952299208171 7.021181810381309 4.2280999999999995 7.0184999999999995 L 18.9734 7.0184999999999995 C 18.9734 7.0184999999999995 21.5077 6.7996 21.8353 8.557699999999999 C 21.5862 8.5864 21.3904 8.7898 21.3904 9.046599999999998 C 21.3904 9.758099999999999 20.8113 10.336699999999999 20.0876 10.336699999999999 L 19.269299999999998 10.336699999999999 z M 17.222 22.5366 C 17.4567 23.0203 17.254900000000003 23.6026 16.7713 23.8373 C 16.6417 23.900199999999998 16.5047 23.9268 16.3695 23.93 C 16.26124403942375 23.93269796629397 16.15329621970961 23.91732030255886 16.050099999999997 23.8845 C 16.026099999999996 23.8767 16.004099999999998 23.863599999999998 15.980699999999997 23.854 C 15.899150406020215 23.820517081699233 15.822545286228847 23.776074673598927 15.752999999999997 23.721899999999998 C 15.728299999999997 23.702699999999997 15.703499999999996 23.683899999999998 15.680599999999997 23.6621 C 15.598099999999997 23.5838 15.523199999999996 23.494899999999998 15.470599999999996 23.3864 L 14.215199999999996 20.7721 L 12.656699999999995 17.526899999999998 C 12.529415739415374 17.25568806138104 12.256795049152327 17.082528129023828 11.957199999999995 17.0826 L 11.954799999999995 17.0826 C 11.653391171199065 17.08385559453763 11.37882157553593 17.256086670851523 11.246499999999996 17.526899999999998 L 9.735599999999996 20.7721 L 8.503499999999995 23.418499999999998 C 8.362403295303569 23.742407446669784 8.056691395250143 23.96427350312684 7.704999999999996 23.997999999999998 C 7.642399999999996 24.003299999999996 7.5811999999999955 23.995599999999996 7.519999999999996 23.989299999999997 C 7.485599999999996 23.985699999999998 7.450999999999996 23.983999999999998 7.417499999999996 23.976899999999997 C 7.368599999999996 23.966599999999996 7.322099999999996 23.949099999999998 7.275499999999996 23.931699999999996 C 7.245399999999996 23.920399999999997 7.2141999999999955 23.911999999999995 7.185399999999996 23.897799999999997 C 7.135799999999996 23.873399999999997 7.090599999999996 23.841299999999997 7.045699999999996 23.808899999999998 C 7.023999999999996 23.7933 6.999999999999996 23.781399999999998 6.979499999999995 23.763899999999996 C 6.9153925101895375 23.70988700187565 6.858433257514674 23.647920711650016 6.809999999999995 23.579499999999996 C 6.610280990851671 23.28796008220676 6.583220157842062 22.911401711005254 6.739199999999995 22.594299999999997 L 7.586099999999995 20.772 L 10.853699999999995 13.740599999999999 C 10.474383076242948 13.460541144128157 10.220379900173759 13.042578055904578 10.146499999999994 12.576899999999998 C 9.990999999999994 11.596999999999998 10.659399999999994 10.676599999999999 11.639299999999995 10.520999999999999 L 11.639299999999995 9.3946 C 11.63411235962976 9.266938427329084 11.698080562887409 9.146377088453407 11.806699999999996 9.0791 C 11.915839757076625 9.014300665101166 12.051660242923365 9.014300665101166 12.160799999999997 9.0791 C 12.269451322783288 9.146347257743809 12.333430218411408 9.266928748608036 12.328199999999997 9.3946 L 12.328199999999997 10.553600000000001 L 12.341099999999997 10.56 C 12.995570365981576 10.740241635370223 13.493309267394455 11.27284313105818 13.628899999999998 11.937999999999999 C 13.774294720676039 12.606834216258452 13.524098792721862 13.299875771001533 12.985 13.721599999999999 L 16.3739 20.7723 L 17.221999999999998 22.5366 z M 12.9841 12.306 C 12.9883 11.697899999999999 12.4987 11.2016 11.8906 11.1975 C 11.596645049053688 11.197587920314648 11.314499307477874 11.313197281584065 11.104999999999999 11.5194 C 10.900018245658273 11.724092470138752 10.783966509744713 12.001323180451147 10.781999999999998 12.290999999999999 C 10.777799999999997 12.899099999999999 11.267399999999999 13.395399999999999 11.875499999999999 13.399499999999998 L 11.883199999999999 13.399499999999998 C 12.487799999999998 13.399499999999998 12.979899999999999 12.911499999999998 12.984099999999998 12.305999999999997 z M 11.9571 17.5828 C 11.8452 17.583299999999998 11.745000000000001 17.645999999999997 11.700000000000001 17.7381 L 10.287300000000002 20.772299999999998 L 13.660600000000002 20.772299999999998 L 12.204200000000002 17.7395 C 12.15895139296557 17.643978995409736 12.06279606499538 17.583001496854784 11.957100000000002 17.5828 z M 20.1003 10.8369 L 20.087400000000002 10.8368 L 19.269700000000004 10.8368 C 19.242382701546532 10.8368 19.216184248517937 10.847651754557637 19.196868001537787 10.866968001537785 C 19.17755175455764 10.886284248517933 19.166700000000002 10.912482701546526 19.166700000000002 10.9398 L 19.166700000000002 23.850099999999998 C 19.166594740242942 23.904576898253296 19.208928259812897 23.949715123053558 19.2633 23.9531 L 20.1068 23.9531 C 21.0929 23.9496 21.8904 23.1491 21.8904 22.1631 L 21.8904 9.0468 C 21.8904 10.035499999999999 21.089 10.8369 20.1003 10.8369 z M 2.6098 5.0161 L 2.6098 5.0351 C 2.6136999999999997 5.8511 3.2817 6.5181000000000004 4.0972 6.522 C 4.1408268596402875 6.520629813571349 4.1844608358690785 6.519496463539432 4.228099999999996 6.518599999999999 L 5.3567 6.5186 C 5.5539 5.2036 6.1174 3.9936000000000003 6.9947 3.0327 L 4.0993 3.0327 C 3.1727000000000003 3.0358 2.4022000000000006 3.6728 2.1802 4.530200000000001 C 2.4219 4.5657000000000005 2.6098 4.765200000000001 2.6098 5.016100000000001 z M 8.9479 2.1184 L 7.9112 0.3284 C 7.872117896207884 0.26066658197478276 7.872117896207884 0.17723341802521736 7.9112 0.1095000000000001 C 7.952343600224184 0.04519723433127727 8.021792979098342 0.004486811490162307 8.098 0 C 8.175161312590786 0.0010264388762047502 8.24608752051278 0.042586841375754816 8.2847 0.1094 L 9.3343 1.9252 C 11.025779917104025 1.1654951746685867 12.961420082895977 1.1654951746685873 14.652899999999999 1.9252 L 15.696 0.1094 C 15.764119221149492 0.02533629465108063 15.883436266007548 0.003651793145257154 15.976777841607852 0.058371854470662926 C 16.070119417208154 0.1130919157960687 16.109479368707323 0.22779836294355313 16.069399999999998 0.3283 L 15.039199999999997 2.1183 C 16.7063 3.0308 17.836599999999997 4.6622 18.136699999999998 6.520099999999999 L 5.850699999999998 6.518699999999999 C 6.151099999999998 4.661499999999999 7.281199999999998 3.030699999999999 8.947899999999997 2.1183999999999994 z M 14.3253 4.7386 C 14.328497808974813 4.875181401456408 14.385834105210034 5.004895431760674 14.484690022618118 5.099193961968954 C 14.583545940026204 5.193492492177234 14.715819766489776 5.244647309706311 14.852400000000001 5.2414 C 14.989021145595483 5.241426530954357 15.1200542616961 5.187165742347292 15.216660002021698 5.090560002021695 C 15.313265742347294 4.993954261696098 15.367526530954358 4.8629211455954815 15.367500000000001 4.726299999999999 C 15.366285620253036 4.516367057896256 15.239260654618205 4.327647464877587 15.04522532535511 4.247500063820124 C 14.851189996092014 4.167352662762661 14.628011576707816 4.2114187472816305 14.479000000000001 4.359299999999999 C 14.37758284274902 4.459081316132929 14.321952371270717 4.596365882377043 14.3253 4.738599999999999 z M 8.6075 4.7318999999999996 C 8.60897716572968 4.868515576571012 8.664668314476213 4.998947997910183 8.76232027593595 5.094499513876644 C 8.859972237395688 5.190051029843105 8.991584598974356 5.242893312768749 9.1282 5.2414 C 9.265510879867797 5.243605246017126 9.397878038245267 5.1901895071732485 9.4952 5.093299999999999 C 9.648423929182087 4.967252020834376 9.716848699131276 4.765176434534786 9.671728398818884 4.571967159329235 C 9.626608098506493 4.378757884123685 9.475760011036956 4.227889245143594 9.2825568843854 4.182742624253458 C 9.089353757733845 4.137596003363322 8.887268851768672 4.205993243819134 8.7612 4.3591999999999995 C 8.661449257225739 4.457385383169645 8.605958587428944 4.59194213419935 8.6075 4.7318999999999996 z" stroke-linecap="round" />
</g>
</svg>