<?xml version="1.0" encoding="UTF-8" standalone="no" ?>
<!DOCTYPE svg PUBLIC "-//W3C//DTD SVG 1.1//EN" "http://www.w3.org/Graphics/SVG/1.1/DTD/svg11.dtd">
<svg xmlns="http://www.w3.org/2000/svg" xmlns:xlink="http://www.w3.org/1999/xlink" version="1.1" width="1080" height="1080" viewBox="0 0 1080 1080" xml:space="preserve">
<desc>Created with Fabric.js 5.2.4</desc>
<defs>
</defs>
<rect x="0" y="0" width="100%" height="100%" fill="transparent"></rect>
<g transform="matrix(1 0 0 1 540 540)" id="54703570-a7c7-40f4-8b31-b9e305183212"  >
<rect style="stroke: none; stroke-width: 1; stroke-dasharray: none; stroke-linecap: butt; stroke-dashoffset: 0; stroke-linejoin: miter; stroke-miterlimit: 4; fill: rgb(255,255,255); fill-rule: nonzero; opacity: 1; visibility: hidden;" vector-effect="non-scaling-stroke"  x="-540" y="-540" rx="0" ry="0" width="1080" height="1080" />
</g>
<g transform="matrix(1 0 0 1 540 540)" id="78c39ba0-d8a4-4356-8935-b854fda7288d"  >
</g>
<g transform="matrix(15.12 0 0 15.12 539.84 539.93)" id="3ecd1173-ff61-43c3-8930-abc448be28d5"  >
<circle style="stroke: rgb(0,0,0); stroke-width: 0; stroke-dasharray: none; stroke-linecap: butt; stroke-dashoffset: 0; stroke-linejoin: miter; stroke-miterlimit: 4; fill: rgb(255,255,255); fill-rule: nonzero; opacity: 1;" vector-effect="non-scaling-stroke"  cx="0" cy="0" r="35" />
</g>
<g transform="matrix(41.11 0 0 39.15 568.26 564.43)" id="21c6ef6d-5d23-4545-9b52-e8a9eec9437f"  >
<path style="stroke: rgb(0,0,0); stroke-width: 0; stroke-dasharray: none; stroke-linecap: butt; stroke-dashoffset: 0; stroke-linejoin: miter; stroke-miterlimit: 4; fill: rgb(101,163,190); fill-rule: nonzero; opacity: 1;" vector-effect="non-scaling-stroke"  transform=" translate(-12, -12)" d="M 1.14 9.295 L 1.3099999999999998 9.548 C 0.9699999999999998 9.538 0.6139999999999999 9.505 0.5459999999999998 9.359 C 0.5459999999999998 9.352 0.5479999999999998 9.345 0.5499999999999998 9.338 C 0.7399999999999998 9.287999999999998 0.9029999999999998 9.284999999999998 1.1399999999999997 9.295 z M 2.9459999999999997 10.065 L 3.0279999999999996 10.315 L 2.8359999999999994 10.322999999999999 L 2.8819999999999992 10.066999999999998 C 2.903999999999999 10.066999999999998 2.923999999999999 10.065999999999999 2.9459999999999993 10.063999999999998 z M 3.6 11.89 C 3.43 12.046000000000001 3.299 12.15 3.198 12.387 C 3.058 12.272 2.985 12.044 2.94 11.789 C 2.89 11.511 2.874 11.202 2.836 10.971 L 2.848 10.853 L 3.045 10.839 L 3.5469999999999997 11.789 L 3.5999999999999996 11.889 z M 3.346 9.548 C 3.3709365909253783 9.377224334965904 3.3966034923596746 9.206556107246898 3.422999999999991 9.03600000000001 L 3.488 9.032 C 3.44 9.204 3.392 9.376 3.346 9.548 z M 3.209 7.226 L 4.109 7.47 C 4.107531003155923 7.483319418267945 4.10619760077025 7.496653442124674 4.105 7.510000000000002 C 3.6860000000000004 7.819999999999999 3.2990000000000004 7.9559999999999995 3.091 8.516 L 3.17 7.27 L 3.209 7.226999999999999 z M 4.049 5.936 C 3.9910000000000005 6.516 4.073 6.772 4.174 7.132 C 4.3340000000000005 7.2459999999999996 4.398000000000001 7.3149999999999995 4.346 7.484 C 4.0760000000000005 7.35 3.79 7.21 3.3760000000000003 7.232 C 3.3659040966692295 7.220415879285749 3.3559037576082003 7.208748817047882 3.3459999999999996 7.196999999999999 C 3.4620000000000006 6.74 3.6880000000000006 6.459 3.8630000000000004 6.0969999999999995 L 4.050000000000001 5.935 z M 5.343 5.164 L 5.382 5.161 C 5.258 5.5889999999999995 5.207999999999999 6.576 4.991 6.968 C 4.478 6.725 4.4879999999999995 5.672 5.061999999999999 5.256 L 5.342 5.164000000000001 z M 4.865 8.334 L 5.297000000000001 8.802999999999999 C 5.127000000000001 9.325 4.806000000000001 9.718 4.670000000000001 10.322999999999999 L 4.415000000000001 10.302999999999999 C 4.197000000000001 9.693999999999999 4.742000000000001 8.701999999999998 4.835000000000001 8.258 L 5.235000000000001 8.303999999999998 C 5.285000000000001 8.428999999999998 5.333000000000001 8.553999999999998 5.3820000000000014 8.679999999999998 L 4.865000000000001 8.332999999999998 z M 6.047 5.16 C 6.003 5.667 6.114999999999999 5.93 6.145 6.322 C 5.891 6.452 5.635999999999999 6.58 5.382 6.709 C 5.429177451933383 6.184195426613813 5.554913370081507 5.6694534775194905 5.755000000000001 5.182 L 6.047 5.159999999999999 z M 6.343 4.390000000000001 L 6.4 4.386000000000001 L 6.314 4.633000000000001 L 6.1450000000000005 4.644000000000001 L 6.275 4.491000000000001 L 6.343 4.3900000000000015 z M 6.4 6.755 L 5.636 7.225 C 5.652 6.941 6.014 6.558 6.317 6.452 L 6.3870000000000005 6.49 L 6.4 6.755 z M 6.91 4.977 C 6.863 5.239000000000001 6.817 5.5 6.772 5.7620000000000005 L 6.6290000000000004 5.852 L 6.553000000000001 5.9350000000000005 C 6.415000000000001 5.7410000000000005 6.380000000000001 5.265000000000001 6.410000000000001 4.9030000000000005 L 6.910000000000001 4.977 z M 7.418 4.3870000000000005 C 7.418 4.397 7.416 4.405 7.415 4.413 L 7.22 4.6 C 7.09 4.6499999999999995 7.074 4.648 6.91 4.6419999999999995 C 6.931 4.5569999999999995 6.955 4.4719999999999995 6.978 4.387 L 7.418 4.387 z M 7.928 3.3550000000000004 L 7.7 3.87 L 6.91 3.813 L 6.913 3.7710000000000004 C 7.238 3.6210000000000004 7.523000000000001 3.4430000000000005 7.9270000000000005 3.3540000000000005 z M 7.516 4.695 L 7.6 4.6450000000000005 L 7.673 4.9030000000000005 L 7.418 4.853000000000001 L 7.516 4.694000000000001 z M 8.182 5.458 C 7.8790000000000004 5.5760000000000005 7.460000000000001 5.543 7.2170000000000005 5.678 C 7.199541908164889 5.574631115406771 7.18187520551562 5.471297571609131 7.164000000000003 5.367999999999989 L 7.322000000000001 5.1610000000000005 C 7.579000000000001 5.261 7.836000000000001 5.363 8.092 5.464 L 8.182 5.458 z M 7.531000000000001 5.922000000000001 L 7.1850000000000005 5.9350000000000005 C 7.1770000000000005 5.899000000000001 7.171 5.863 7.164000000000001 5.8260000000000005 C 7.407000000000001 5.727 7.815 5.718000000000001 8.182 5.6770000000000005 L 7.795 5.890000000000001 L 7.531 5.922000000000001 z M 8.436 5.922000000000001 C 8.145 5.995000000000001 7.866 6.252000000000001 7.675 6.452000000000001 C 7.638 6.218000000000001 8.087 5.806000000000001 8.302 5.6770000000000005 C 8.397 5.7620000000000005 8.407 5.753 8.436 5.922000000000001 z M 8.946 2.8390000000000004 L 8.942 2.8790000000000004 L 8.636000000000001 3.0640000000000005 L 8.182 3.0970000000000004 L 8.186 3.0570000000000004 L 8.946 2.8390000000000004 z M 8.533999999999999 3.6130000000000004 L 8.435999999999998 3.4680000000000004 C 8.665999999999999 3.2750000000000004 9.172999999999998 3.3810000000000002 9.454999999999998 3.4100000000000006 L 8.533999999999999 3.6130000000000004 z M 10.812 2.8530000000000006 C 11.237 2.888000000000001 11.626 2.9880000000000004 11.921999999999999 3.1730000000000005 L 12 3.168 L 11.953 3.234 L 11.546 3.354 C 11.301 3.3200000000000003 11.056 3.2840000000000003 10.812 3.249 L 9.2 3.02 L 9.203999999999999 2.987 C 9.730254814537057 2.8620115315879073 10.27236120534642 2.8171731298605156 10.811999999999996 2.853999999999999 z M 12.504999999999999 2.7170000000000005 L 12.415 2.8390000000000004 C 12.170978576454978 2.8215446783266946 11.93770565704182 2.731717195925806 11.745 2.581 L 12.508999999999999 2.6780000000000004 L 12.504999999999999 2.7170000000000005 z M 13.860999999999999 3.6710000000000003 L 14.072 3.591 L 14.290999999999999 3.7790000000000004 C 14.261 3.994 14.053999999999998 4.17 13.894999999999998 4.3790000000000004 L 13.772999999999998 4.3870000000000005 C 13.440999999999997 3.8370000000000006 13.021999999999998 3.2360000000000007 12.286999999999997 3.0240000000000005 L 12.254999999999997 2.9590000000000005 L 12.551999999999998 2.8390000000000004 C 13.050999999999998 3.0130000000000003 13.466999999999999 3.2770000000000006 13.929999999999998 3.4290000000000003 C 13.989999999999998 3.5740000000000003 13.970999999999998 3.5250000000000004 13.859999999999998 3.6710000000000003 z M 14.475 4.894 L 14.417 4.837 L 14.291 4.846 L 14.501000000000001 4.646 L 14.475000000000001 4.894 z M 14.7 7.742 C 15.043999999999999 8.04 15.132 8.472 14.988999999999999 9.032 C 14.841 8.7 14.693999999999999 8.367 14.544999999999998 8.035 C 14.594999999999999 7.961 14.641999999999998 7.8870000000000005 14.690999999999999 7.813 C 14.693999999999999 7.789 14.696 7.765 14.7 7.742 z M 14.799999999999999 5.422000000000001 L 14.796 5.470000000000001 L 14.615 5.6770000000000005 L 14.545 5.540000000000001 C 14.654 5.345000000000001 14.575 5.450000000000001 14.718 5.430000000000001 L 14.8 5.422000000000001 z M 15.011999999999999 5.4190000000000005 L 15.817999999999998 5.718000000000001 C 15.816999999999998 5.745000000000001 15.813999999999998 5.772000000000001 15.810999999999998 5.798000000000001 C 15.742999999999999 5.845000000000001 15.674999999999999 5.890000000000001 15.606999999999998 5.9350000000000005 L 14.799999999999997 5.6370000000000005 L 14.806999999999997 5.556 L 15.011999999999997 5.4190000000000005 z M 16.581999999999997 6.452 L 16.134999999999998 6.155 L 16.072999999999997 6.035 C 16.266999999999996 5.915 16.238999999999997 5.921 16.443999999999996 5.961 C 16.488999999999997 6.125 16.535999999999994 6.288 16.581999999999997 6.4510000000000005 z M 16.836 6.354 L 16.746 6.452 C 16.637999999999998 6.396 16.619 6.325 16.581999999999997 6.193 L 16.814999999999998 6.295 L 16.836 6.354 z M 16.645999999999997 5.615 L 16.581999999999997 5.62 C 16.651999999999997 5.553 16.721999999999998 5.486 16.793999999999997 5.42 C 16.743999999999996 5.485 16.693999999999996 5.55 16.645999999999997 5.615 z M 17.854999999999997 6.913 L 17.729999999999997 6.968 C 17.502783452610135 6.840718752008888 17.275783125568942 6.7130519014116175 17.048999999999985 6.585000000000047 C 16.977823927489162 6.488462779068146 16.906823809634 6.3917959519413765 16.836000000000002 6.294999999999987 C 17.188999999999997 6.035 17.201999999999995 6.337 17.534999999999997 6.502 L 17.854999999999997 6.912999999999999 z M 18.108999999999998 7.141 L 17.854999999999997 7.048 L 18.007999999999996 6.968 L 18.108999999999995 7.141 z M 17.799 7.557 C 17.891 7.742 17.891 7.69 18.108999999999998 7.662000000000001 L 17.718 8 L 17.345 7.288 L 17.349999999999998 7.244000000000001 C 17.624999999999996 7.1850000000000005 17.712999999999997 7.284000000000001 17.982 7.324000000000001 L 18.085 7.490000000000001 L 17.8 7.557000000000001 z M 17.855 8.02 L 18.364 7.741999999999999 C 18.262 7.9719999999999995 18.129 8.09 17.972 8.258 L 17.855 8.02 z M 18.873 9.004999999999999 C 18.735 9.123999999999999 18.645 9.161999999999999 18.384 9.184 L 18.594 9.206999999999999 L 18.59 9.244 L 17.873 9.548 L 17.855 8.628 L 18.349 8.043 L 18.439 7.999999999999999 L 18.873 9.004999999999999 z M 18.618000000000002 7.592999999999999 C 20.024 7.200999999999999 19.752000000000002 7.946999999999999 19.125000000000004 8.515999999999998 C 18.955000000000002 8.208999999999998 18.786000000000005 7.900999999999998 18.618000000000002 7.592999999999998 z M 19.891000000000002 7.741999999999999 C 19.373 10.175999999999998 19.273000000000003 10.309 17.441000000000003 11.354999999999999 C 17.411 11.306 17.378000000000004 11.258 17.345000000000002 11.209999999999999 L 17.410000000000004 10.937999999999999 C 18.605000000000004 10.597999999999999 19.284000000000002 9.972 19.213000000000005 8.555 L 19.812000000000005 7.785 L 19.891000000000005 7.742 z M 19.953000000000003 7.741999999999999 C 19.933000000000003 7.6579999999999995 19.913000000000004 7.573999999999999 19.891000000000002 7.489999999999999 L 20.081000000000003 7.483999999999999 L 19.953000000000003 7.741999999999999 z M 16.836000000000002 10.108999999999998 L 16.854000000000003 9.839999999999998 L 16.87 9.609999999999998 L 17.046 9.550999999999998 C 17.055 9.550999999999998 17.063 9.548999999999998 17.070999999999998 9.547999999999998 C 17.121 9.852999999999998 17.070999999999998 10.077999999999998 16.970999999999997 10.322999999999999 C 16.884999999999998 10.267999999999999 16.867999999999995 10.245 16.835999999999995 10.108999999999998 z M 15.818000000000001 12.366999999999997 L 15.822000000000001 12.321999999999997 L 16.156000000000002 11.522999999999998 L 16.226000000000003 11.354999999999999 L 16.814000000000004 11.394999999999998 C 16.823000000000004 11.438999999999998 16.829000000000004 11.481999999999998 16.832000000000004 11.522999999999998 C 16.858000000000004 11.826999999999998 16.753000000000004 12.069999999999999 16.645000000000003 12.386999999999999 L 15.818000000000003 12.366999999999999 z M 16.073 13.402999999999997 L 16.080000000000002 13.002999999999997 L 16.090000000000003 12.902999999999997 L 16.520000000000003 12.934999999999997 L 16.582000000000004 12.929999999999996 C 16.483000000000004 13.092999999999996 16.385000000000005 13.255999999999997 16.288000000000004 13.419999999999996 L 16.073000000000004 13.402999999999997 z M 15.821 11.732999999999997 L 15.847 11.719999999999997 L 16.05 11.614999999999997 L 16.073 11.612999999999996 L 16.043 11.719999999999995 L 15.924 12.128999999999996 L 15.818 11.764999999999995 L 15.821 11.732999999999995 z M 15.424 13.017999999999997 L 15.309 12.902999999999997 C 15.421 12.980999999999996 15.347999999999999 12.904999999999998 15.424 13.017999999999997 z M 14.799999999999999 12.710999999999997 C 14.943 12.620999999999997 15.097999999999999 12.648999999999997 15.309999999999999 12.650999999999996 L 15.246999999999998 12.857999999999997 C 15.071999999999997 12.927999999999997 15.046999999999999 12.901999999999997 14.849999999999998 12.880999999999997 L 14.799999999999997 12.710999999999997 z M 15.111999999999998 13.676999999999996 L 15.308999999999997 14.142999999999995 C 15.156999999999998 14.245999999999995 15.003999999999998 14.347999999999995 14.851999999999997 14.451999999999995 C 14.715999999999998 14.264999999999995 14.863999999999997 13.741999999999994 15.111999999999997 13.676999999999994 z M 14.608999999999998 12.056999999999995 L 14.544999999999998 12.061999999999996 L 14.628999999999998 11.870999999999995 L 14.608999999999998 12.057999999999995 z M 15.341999999999999 12.128999999999994 L 15.309 12.107999999999993 L 15.421 11.871999999999993 L 15.458 11.870999999999993 L 15.564 12.118999999999993 L 15.342 12.128999999999992 z M 17.104999999999997 8.773999999999994 L 17.090999999999998 8.686999999999994 C 17.157999999999998 8.604999999999993 17.200999999999997 8.553999999999995 17.316 8.516999999999994 L 17.346 8.668999999999993 C 17.296 8.701999999999993 17.246 8.733999999999993 17.197 8.767999999999994 L 17.105 8.773999999999994 z M 17.090999999999998 9.403999999999995 C 17.044999999999998 9.464999999999995 16.962999999999997 9.498999999999995 16.904999999999998 9.547999999999995 L 16.836 8.257999999999996 L 17.090999999999998 9.403999999999996 z M 16.624 11.133999999999995 C 16.791999999999998 11.039999999999996 16.816 11.126999999999995 16.836 11.353999999999996 L 16.326999999999998 11.353999999999996 L 16.336 11.273999999999996 L 16.624 11.133999999999995 z M 16.374 10.420999999999996 L 16.488999999999997 10.322999999999995 L 16.581999999999997 10.488999999999995 L 16.538999999999998 10.580999999999996 L 16.326999999999998 10.555999999999996 L 16.374 10.420999999999996 z M 16.326999999999998 11.104999999999995 L 16.061999999999998 11.354999999999995 L 15.888999999999998 11.325999999999995 L 15.818999999999997 11.332999999999995 C 15.858999999999996 11.253999999999994 15.900999999999998 11.174999999999995 15.941999999999997 11.096999999999994 L 16.326999999999998 11.104999999999993 z M 15.366999999999997 10.957999999999995 C 15.260999999999997 10.883999999999995 15.336999999999998 10.893999999999995 15.316999999999997 10.837999999999996 L 15.366999999999997 10.957999999999995 z M 16.168999999999997 9.805999999999996 L 15.308999999999997 9.359999999999996 C 15.348999999999997 8.769999999999996 15.420999999999998 8.091999999999995 15.362999999999998 7.483999999999996 C 16.025999999999996 7.723999999999997 16.621 8.802999999999997 16.168999999999997 9.805999999999997 z M 15.563999999999997 9.805999999999996 C 15.774999999999997 9.917999999999996 15.763999999999996 10.019999999999996 16.056999999999995 10.109999999999996 C 16.107999999999993 10.300999999999997 16.029999999999994 10.376999999999995 15.907999999999996 10.579999999999997 L 15.595999999999997 10.567999999999996 C 15.531999999999996 10.227999999999996 15.601999999999997 10.032999999999996 15.563999999999997 9.805999999999996 z M 15.621999999999996 11.474999999999996 C 15.514999999999997 11.400999999999996 15.591999999999997 11.410999999999996 15.571999999999996 11.354999999999997 L 15.621999999999996 11.474999999999996 z M 17.344999999999995 8.990999999999996 L 17.347999999999995 8.942999999999996 L 17.577999999999996 8.773999999999996 C 17.617999999999995 9.037999999999995 17.602999999999994 9.477999999999996 17.542999999999996 9.805999999999996 C 17.406999999999996 9.699999999999996 17.381999999999994 9.251999999999995 17.344999999999995 8.990999999999996 z M 17.344999999999995 9.805999999999996 C 17.396999999999995 9.719999999999995 17.448999999999995 9.633999999999995 17.498999999999995 9.547999999999995 L 17.408999999999995 9.801999999999994 L 17.344999999999995 9.805999999999994 z M 18.829999999999995 9.034999999999995 L 18.872999999999994 9.031999999999995 C 18.884999999999994 10.020999999999995 18.274999999999995 10.200999999999995 17.472999999999995 10.571999999999996 L 17.344999999999995 10.580999999999996 L 17.844999999999995 9.544999999999996 L 18.829999999999995 9.034999999999997 z M 17.32 7.103 C 17.328 7.129 17.337 7.154 17.344 7.18 L 17.281000000000002 7.226 L 17.090000000000003 6.968 L 17.320000000000004 7.103 z M 17.09 7.5329999999999995 L 17.097 7.4879999999999995 C 17.115655166112255 7.486510269922926 17.134322488152044 7.485176889777226 17.153 7.484 L 17.345000000000002 7.742 C 17.197000000000003 7.672 17.173000000000002 7.654 17.090000000000003 7.532 z M 17.344 8.193 L 17.001 8.516 L 16.264000000000003 7.446 L 15.308000000000003 6.616 L 15.518000000000004 6.452 C 15.981000000000003 6.652 16.791000000000004 7.0329999999999995 16.954000000000004 7.509 C 17.007000000000005 7.664000000000001 16.824000000000005 7.792000000000001 16.948000000000004 7.921 C 17.096000000000004 8.075000000000001 17.244000000000003 7.965 17.345000000000002 8.192 z M 15.196000000000002 9.806 L 15.274000000000001 9.837 L 15.308000000000002 10.581 L 15.189000000000002 10.552999999999999 C 15.077000000000002 10.469999999999999 14.999000000000002 10.085999999999999 15.101000000000003 9.918999999999999 L 15.196000000000003 9.806 z M 14.632000000000001 11.1 L 14.714000000000002 11.097 L 14.799000000000003 11.299 L 14.669000000000002 11.349 L 14.544000000000002 11.355 C 14.574000000000002 11.27 14.604000000000003 11.185 14.632000000000001 11.1 z M 14.400000000000002 15.225999999999999 L 14.290000000000003 14.848999999999998 C 14.447000000000003 14.803999999999998 14.603000000000003 14.758999999999999 14.760000000000003 14.711999999999998 L 14.800000000000002 14.709999999999997 C 14.797942346024398 14.721607460649123 14.796274741165176 14.733280694663668 14.795000000000002 14.744999999999997 L 14.400000000000002 15.224999999999998 z M 14.035000000000002 14.193999999999999 C 14.082000000000003 14.042 14.115000000000002 14.018999999999998 14.200000000000001 13.934999999999999 L 14.270000000000001 13.963 L 14.290000000000001 14.029 L 14.133000000000001 14.183 L 14.035 14.193 z M 14.155000000000001 14.451999999999998 L 14.035000000000002 14.319999999999999 L 14.290000000000003 14.193999999999999 L 14.224000000000002 14.447 L 14.155000000000001 14.452 z M 13.887 15.621999999999998 C 13.851 15.593999999999998 13.817 15.564999999999998 13.781 15.534999999999998 L 13.859 15.529999999999998 L 14.252 15.225999999999997 L 14.290000000000001 15.535999999999998 L 13.989 15.741999999999997 L 13.887 15.621999999999998 z M 13.907 18.578 C 13.294 18.604 12.927 18.448 12.427 18.404 L 11.854 17.271 L 11.744 17.157 C 12.706 17.043 13.311 16.579 14.024 16.258 C 14.276 16.497999999999998 14.847 17.72 14.344 18.261 C 14.224 18.445999999999998 14.088999999999999 18.465 13.905999999999999 18.578 z M 11.275 17.305 L 11.505 17.29 C 11.852 17.523 12.088000000000001 17.939999999999998 12.254000000000001 18.323 L 11.235000000000001 18.028 C 11.311000000000002 17.77 11.343000000000002 17.508 11.275 17.305 z M 10.543000000000001 16.331 L 11.691 16 L 13.495000000000001 16.176 L 13.527000000000001 16.267 C 12.99 16.509 12.379000000000001 16.713 11.763000000000002 17.025 C 11.096000000000002 17.078 10.935000000000002 16.828999999999997 10.473000000000003 16.665 L 10.544000000000002 16.331 z M 10.472000000000001 17.547 L 10.495000000000001 17.323 L 10.934000000000001 17.29 C 10.97 17.485 11.008000000000001 17.593999999999998 10.954 17.805999999999997 L 10.472000000000001 17.545999999999996 z M 9.962000000000002 17.951 L 10.133000000000001 17.857 C 10.343000000000002 17.718 10.5 17.903 10.726 17.976 L 10.636000000000001 18.064 L 9.963000000000001 17.951 z M 10.457 17.548000000000002 C 10.401524449555916 17.523315974525428 10.346190215216724 17.498315567444465 10.291 17.473 L 10.217 17.290000000000003 L 10.472000000000001 17.306 L 10.457 17.548000000000002 z M 9.708 17.548000000000002 L 9.963000000000001 17.767000000000003 C 9.963000000000001 17.902000000000005 9.951 17.887000000000004 9.920000000000002 18.064000000000004 L 9.708000000000002 17.548000000000002 z M 9.048 16.581000000000003 C 9.287 16.508000000000003 9.605 16.524000000000004 9.963000000000001 16.516000000000002 L 9.63 16.774 L 8.945 16.707 L 9.048 16.581 z M 8.436 3.648 C 8.909 3.196 10.095 3.331 10.392 3.6180000000000003 L 10.472 3.611 C 10.077 3.9800000000000004 9.465 4.022 9.088999999999999 4.3870000000000005 C 8.793999999999999 4.191000000000001 8.549999999999999 4.065 8.435999999999998 3.6480000000000006 z M 11.036 4.3870000000000005 L 11.235999999999999 4.614000000000001 C 11.057999999999998 4.6240000000000006 10.870999999999999 4.635000000000001 10.684 4.651000000000001 C 10.263 4.687 9.847 4.750000000000001 9.556 4.901000000000001 L 9.517999999999999 4.9030000000000005 C 9.496962163076741 4.870024093285403 9.475962149268069 4.837024071586078 9.45499999999999 4.804000000000004 C 9.932681220250238 4.5534232158604055 10.46003512719536 4.412021326303877 10.998999999999997 4.390000000000001 L 11.036 4.3870000000000005 z M 12.027999999999999 3.0970000000000004 C 12.357 3.4270000000000005 12.847999999999999 3.623 13.017999999999999 4.1290000000000004 C 12.328 3.8080000000000003 11.265999999999998 3.8130000000000006 10.727999999999998 3.3020000000000005 C 11.201999999999998 3.4030000000000005 11.605999999999998 3.3650000000000007 12.027999999999999 3.0970000000000004 z M 12.254999999999999 4.9030000000000005 L 13.198999999999998 5.033 L 13.272999999999998 5.027 L 12.515999999999998 5.6770000000000005 C 12.395999999999999 5.438000000000001 12.367999999999999 5.114000000000001 12.254999999999999 4.9030000000000005 z M 13.468 6.007000000000001 L 13.273 5.977 L 13.527 5.9350000000000005 L 13.466999999999999 6.007000000000001 z M 13.273 5.390000000000001 L 13.506 5.1610000000000005 L 13.527000000000001 5.4190000000000005 L 13.358 5.382000000000001 L 13.273 5.390000000000001 z M 13.735 13.93 L 13.623 13.935 L 13.527 13.845 L 13.600999999999999 13.748000000000001 L 13.780999999999999 13.678 L 13.735 13.931000000000001 z M 13.532 14.402 C 13.562 14.366 13.594 14.33 13.626 14.293999999999999 L 13.633999999999999 14.193999999999999 L 13.781999999999998 14.428999999999998 L 13.526999999999997 14.451999999999998 L 13.531999999999998 14.401999999999997 z M 13.431 15.225999999999999 L 13.273 15.036 L 13.782 14.968 L 13.539 15.218 L 13.431 15.225999999999999 z M 13.527 16 L 13.017999999999999 15.939 L 13.377999999999998 15.742 L 13.527999999999999 16 z M 13.17 15.272 L 13.273 15.370000000000001 L 12.904 15.464 L 12.509 15.484 L 13.059000000000001 15.225999999999999 L 13.170000000000002 15.271999999999998 z M 11.746 4.129 C 12.043000000000001 4.137 12.357000000000001 4.212 12.509 4.387 C 12.304 4.367 11.935 4.3999999999999995 11.842 4.242 L 11.746 4.129 z M 12.004000000000001 5.161 C 12.149000000000001 5.287999999999999 12.200000000000001 5.438 12.174000000000001 5.677 C 11.950000000000001 5.6 12.008000000000001 5.3549999999999995 12.004000000000001 5.161 z M 12.254000000000001 6.787999999999999 L 12.263000000000002 6.744 C 12.770000000000001 6.6339999999999995 12.879000000000001 6.81 12.648000000000001 6.968 C 12.448000000000002 6.94 12.358000000000002 6.865 12.255 6.788 z M 12.907000000000002 13.419 L 13.018000000000002 13.447000000000001 C 13.016520851977054 13.458983349639501 13.015187420142382 13.470984236151548 13.014000000000003 13.483 L 12.764000000000003 13.677000000000001 L 12.868000000000002 13.422 L 12.907000000000002 13.419 z M 12.767000000000001 7.125000000000001 L 12.957 6.968000000000001 L 13.018 7.226000000000001 L 12.764000000000001 7.170000000000001 L 12.766000000000002 7.125000000000001 z M 13.527000000000001 14.025000000000002 L 12.912 14.186000000000002 L 12.764000000000001 14.193000000000001 C 12.764000000000001 14.185000000000002 12.766000000000002 14.176000000000002 12.768 14.168000000000001 C 12.998000000000001 14.122000000000002 13.146 14.046000000000001 13.282 13.935 L 13.498 13.975 L 13.527999999999999 14.025 z M 13.088000000000001 13.419000000000002 L 13.018 13.276000000000002 L 13.193000000000001 13.161000000000001 L 13.273000000000001 13.204 L 13.173000000000002 13.412 L 13.088000000000001 13.419 z M 11.491000000000001 15.204000000000002 L 11.794000000000002 14.968000000000002 L 12.732000000000003 15.048000000000002 L 12.764000000000003 15.118000000000002 L 12.130000000000003 15.484000000000002 C 11.895000000000003 15.445000000000002 11.692000000000002 15.341000000000001 11.570000000000002 15.198000000000002 L 11.490000000000002 15.204000000000002 z M 11.020000000000001 15.226000000000003 L 11.490000000000002 15.484000000000002 L 10.727000000000002 15.349000000000002 C 10.825000000000003 15.309000000000003 10.922000000000002 15.267000000000001 11.020000000000001 15.226000000000003 z M 10.982000000000001 15.753000000000002 C 10.980909917773483 15.773662209446053 10.979909908272836 15.794329072459417 10.979000000000003 15.815000000000001 L 10.834000000000001 15.895000000000001 L 10.727000000000002 15.909 L 10.731000000000002 15.847000000000001 C 10.842000000000002 15.700000000000001 10.823000000000002 15.749 10.981000000000002 15.753000000000002 z M 9.782 5.25 C 9.75789325818769 5.224119458440509 9.733558980558215 5.198451795735447 9.708999999999996 5.172999999999997 C 9.962 5.035 10.360999999999999 4.969 10.753 4.938 C 11.076 4.911 11.394 4.9079999999999995 11.622 4.903 L 11.746 5.677 C 11.413 5.641 11.096 5.5969999999999995 10.753 5.582 C 10.456629151041371 5.567310553589193 10.159544789496888 5.5780162963475535 9.864999999999997 5.614000000000001 C 9.837885165350656 5.492541496561855 9.810218212691082 5.371206908994547 9.782000000000002 5.249999999999985 z M 10.156 15.605 L 10.218 15.715 L 10.158 15.946 L 9.455 16 C 9.53 15.77 9.642 15.659 9.763 15.484 L 10.156 15.605 z M 9.288 14.71 C 8.968 14.692 8.530000000000001 14.458 8.436 14.194 L 9.455 14.453000000000001 L 9.288 14.71 z M 9.646 14.696000000000002 L 9.455 14.71 L 9.461 14.648000000000001 L 9.673 14.452000000000002 C 9.663 14.533000000000001 9.655 14.614000000000003 9.646 14.696000000000002 z M 8.946000000000002 5.259000000000002 L 9.256000000000002 5.161000000000002 L 9.455000000000002 5.411000000000002 L 9.245000000000001 5.419000000000002 L 8.945 5.259000000000002 z M 8.942000000000002 16.339000000000002 C 8.925000000000002 16.395000000000003 8.910000000000002 16.452 8.894000000000002 16.509000000000004 C 8.869000000000002 16.510000000000005 8.844000000000001 16.513000000000005 8.820000000000002 16.516000000000005 C 8.777133900594897 16.429933114827534 8.734133848494896 16.343933010627556 8.690999999999983 16.25799999999999 L 8.946000000000003 16.284000000000006 L 8.942000000000004 16.339000000000006 z M 9.083000000000002 15.226000000000003 L 9.677000000000001 15.346000000000002 L 9.709000000000001 15.426000000000002 L 9.248000000000001 16.000000000000004 L 8.691 15.918000000000003 L 9.083 15.226000000000003 z M 13.527000000000001 7.1380000000000035 L 13.642000000000001 6.969000000000004 L 13.684000000000001 6.9680000000000035 L 14.004000000000001 7.048000000000004 L 14.036000000000001 7.094000000000004 L 13.679000000000002 7.2260000000000035 C 13.628395432324051 7.196559535455789 13.577728652327167 7.167226136510221 13.526999999999969 7.137999999999981 z M 14.216000000000001 6.304000000000004 L 14.036000000000001 6.1940000000000035 C 14.219000000000001 6.261000000000004 14.114 6.185000000000003 14.216000000000001 6.304000000000004 z M 14.158000000000001 7.4840000000000035 L 14.036000000000001 7.3800000000000034 L 14.291000000000002 7.2260000000000035 L 14.158000000000001 7.4840000000000035 z M 14.036000000000001 9.290000000000003 L 14.432000000000002 9.388000000000003 C 14.539000000000001 9.430000000000003 14.536000000000001 9.441000000000004 14.545000000000002 9.548000000000004 C 14.375000000000002 9.483000000000004 14.091000000000001 9.438000000000004 14.036000000000001 9.290000000000003 z M 14.076 8.587000000000003 L 14.13 8.517000000000003 L 14.291 8.774000000000003 L 14.036 8.724000000000002 L 14.075999999999999 8.587000000000002 z M 8.919 17.078000000000003 L 8.946 17.146000000000004 L 8.603 17.277000000000005 L 8.436 17.290000000000006 L 8.44 17.255000000000006 L 8.557 17.072000000000006 C 8.719000000000001 16.997000000000007 8.723 17.046000000000006 8.919 17.078000000000007 z M 8.182 4.128000000000004 C 8.404 4.294000000000004 8.462 4.498000000000004 8.427 5.161000000000003 C 8.280999999999999 4.974000000000003 8.192 4.5770000000000035 8.182 4.129000000000003 z M 8.328000000000001 3.6130000000000035 L 8.31 3.8 L 8.183 3.8089999999999997 L 8.329 3.6129999999999995 z M 8.182 3.8710000000000035 C 8.175 3.9330000000000034 8.17 3.9950000000000037 8.162 4.057000000000004 L 7.9270000000000005 4.014000000000004 L 8.121 3.8750000000000036 L 8.181000000000001 3.8710000000000035 z M 8.182 18.839000000000002 L 8.308 17.525000000000002 L 9.2 17.290000000000003 L 8.261999999999999 18.791000000000004 L 8.181999999999999 18.839000000000002 z M 8.245000000000001 15.307000000000002 L 8.382000000000001 15.226000000000003 C 8.507000000000001 15.374000000000002 8.395000000000001 15.587000000000003 8.277000000000001 15.742000000000003 C 8.179 15.650000000000002 8.168000000000001 15.592000000000002 8.194 15.383000000000003 L 8.244000000000002 15.307000000000002 z M 7.418000000000001 15.181000000000003 L 7.711000000000001 14.710000000000003 L 8.181000000000001 14.986000000000002 C 8.021 15.238000000000003 7.8580000000000005 15.490000000000002 7.696000000000001 15.742000000000003 C 7.550000000000001 15.612000000000002 7.460000000000001 15.421000000000003 7.418000000000001 15.182000000000002 z M 7.418000000000001 17.202 L 7.888000000000001 16.774 L 8.109 16.794 L 8.182 16.914 C 8.162 17.040000000000003 8.144 17.165000000000003 8.126000000000001 17.290000000000003 L 7.418000000000001 17.202 z M 6.655000000000001 16.852 L 7.215000000000002 16.516000000000002 L 7.641000000000002 16.583000000000002 L 7.673000000000002 16.642000000000003 L 7.224000000000002 17.032000000000004 C 7.000000000000002 17.009000000000004 6.851000000000002 16.949000000000005 6.734000000000002 16.847000000000005 L 6.654000000000002 16.852000000000004 z M 6.580000000000001 16.353 L 6.785000000000001 16.258000000000003 L 6.873000000000001 16.277 L 6.909000000000001 16.319000000000003 L 6.316000000000001 16.516000000000002 L 6.146000000000001 16.456000000000003 L 6.580000000000001 16.353 z M 5.891000000000001 16.111 L 6.041000000000001 15.748000000000001 C 6.319000000000001 15.712000000000002 6.385000000000002 15.849000000000002 6.594000000000001 15.936000000000002 L 6.654000000000001 16.028000000000002 L 6.343000000000001 16.241000000000003 L 6.090000000000001 16.258000000000003 L 5.891000000000001 16.111000000000004 z M 5.381000000000001 17.17 L 5.752000000000001 16.516000000000002 C 5.998000000000001 16.516000000000002 6.0280000000000005 16.536 6.1290000000000004 16.666 C 6.174 16.742 6.135000000000001 16.701 6.037000000000001 16.718 L 6.014000000000001 16.943 L 6.400000000000001 17.003 C 6.324000000000002 17.192 6.312000000000001 17.167 6.198000000000001 17.287 C 5.818000000000001 17.307 5.647000000000001 17.235 5.3820000000000014 17.169999999999998 z M 4.953000000000001 16.258000000000003 L 5.600000000000001 16.453000000000003 L 5.636000000000001 16.530000000000005 L 5.221000000000001 17.032000000000004 L 4.618000000000001 16.834000000000003 L 4.953000000000001 16.258000000000003 z M 2.46 15.56 L 2.468 15.483 L 2.8289999999999997 15.761000000000001 L 2.86 15.835 C 2.109 16.415 3.258 18.305 4.5649999999999995 17.080000000000002 L 5.127 17.306 C 4.911 17.691000000000003 4.54 17.843 4.149 18.061 C 3.214 18.139 1.9049999999999998 16.612 2.459 15.56 z M 3.332 15.824 L 3.3459999999999996 15.999 C 3.276 15.946 3.2059999999999995 15.895000000000001 3.1379999999999995 15.842 L 3.0909999999999993 15.741 L 3.3309999999999995 15.824 z M 4.618 16.92 L 4.1530000000000005 17.28 C 3.2370000000000005 17.376 2.8660000000000005 16.742 2.8360000000000003 15.963000000000001 L 3.015 15.747000000000002 L 3.093 15.741000000000001 C 3.554 16.104000000000003 3.9619999999999997 16.658 4.588 16.841 L 4.618 16.92 z M 3.7310000000000003 13.160000000000002 C 3.648 13.100000000000001 3.6430000000000002 13.070000000000002 3.6010000000000004 12.968000000000002 L 3.7750000000000004 12.306000000000001 L 3.978 12.128 L 4.109 12.32 L 3.731 13.16 z M 3.6010000000000004 13.383000000000003 L 4.002000000000001 12.434000000000003 L 4.0840000000000005 12.386000000000003 C 4.269 12.712000000000003 4.537000000000001 12.860000000000003 4.618 13.303000000000003 L 4.014 13.934000000000003 C 3.826185020818049 13.794088150848093 3.6824918570173812 13.603191435653969 3.6 13.384000000000002 z M 4.364000000000001 14.173000000000002 L 4.8740000000000006 13.676000000000002 L 5.127000000000001 14.193000000000001 C 4.873000000000001 14.185000000000002 4.619000000000001 14.179000000000002 4.364000000000001 14.173000000000002 z M 5.636000000000001 8.958000000000002 C 5.395000000000001 9.473000000000003 5.074000000000001 9.823000000000002 4.8820000000000014 10.322000000000003 C 4.798000000000002 9.869000000000003 5.304000000000001 9.218000000000004 5.467000000000001 8.818000000000003 L 5.545000000000002 8.773000000000003 L 5.636000000000002 8.958000000000004 z M 5.636000000000001 7.538000000000002 C 6.015000000000001 7.421000000000002 6.269000000000001 7.207000000000002 6.540000000000001 6.967000000000002 L 6.655000000000001 7.311000000000003 L 6.333000000000001 7.741000000000002 L 5.636000000000001 7.539000000000002 z M 6.909000000000001 7.565000000000002 L 6.771000000000001 7.741000000000002 L 6.655000000000001 7.721000000000003 L 6.657000000000001 7.693000000000003 L 6.889000000000001 7.483000000000003 L 6.909000000000001 7.565000000000003 z M 6.7090000000000005 6.453000000000002 L 6.7490000000000006 6.451000000000002 L 6.909000000000001 6.788000000000002 L 6.849000000000001 6.967000000000002 C 6.616000000000001 6.845000000000002 6.625000000000001 6.700000000000002 6.709000000000001 6.453000000000002 z M 6.6610000000000005 13.934000000000001 L 6.896000000000001 14.103000000000002 L 6.655000000000001 13.997000000000002 C 6.6563542365455834 13.975943500835276 6.658355180765356 13.954933586527673 6.661000000000001 13.934000000000001 z M 6.657000000000001 14.193000000000001 L 6.909000000000001 14.302000000000001 C 6.907498607411239 14.311976872642292 6.9061650855738925 14.321978286422395 6.905000000000001 14.332 L 6.365000000000001 14.709000000000001 C 6.210000000000001 14.639000000000001 6.191000000000001 14.500000000000002 6.145000000000001 14.349000000000002 L 6.150000000000001 14.317000000000002 L 6.657000000000001 14.193000000000001 z M 5.904000000000001 13.676000000000002 L 6.146000000000001 13.774000000000003 L 6.016000000000001 13.849000000000002 L 5.891000000000001 13.863000000000001 L 5.904000000000001 13.676000000000002 z M 5.891000000000001 8.516000000000002 C 6.197000000000001 8.602000000000002 6.1000000000000005 8.544000000000002 6.113000000000001 8.773000000000001 C 5.973000000000002 8.691 5.963000000000001 8.652000000000001 5.891000000000001 8.515 z M 5.891000000000001 13.125000000000002 L 5.912000000000001 12.902000000000001 C 6.031000000000001 12.985000000000001 6.072000000000001 13.034 6.146000000000001 13.16 C 6.061024704417688 13.148154045882116 5.976024515307995 13.136487353259223 5.890999999999984 13.125000000000004 z M 6.401000000000001 9.902000000000001 C 6.305000000000001 10.025 6.309000000000001 9.992 6.146000000000001 10.063 L 6.257000000000001 9.805 L 6.4 9.902 z M 6.401000000000001 8.864 L 6.2410000000000005 9.031 C 6.081 8.941 6.156000000000001 8.977 6.228000000000001 8.81 L 6.323 8.773 L 6.4 8.863999999999999 z M 6.380000000000001 8.425 L 6.146000000000001 8.257000000000001 C 6.3260000000000005 8.326000000000002 6.284000000000001 8.284 6.380000000000001 8.425 z M 5.891000000000001 13.16 L 6.146000000000001 13.363 C 6.016000000000001 13.36 5.946000000000001 13.331999999999999 5.891000000000001 13.16 z M 6.655000000000001 13.15 L 6.551000000000001 13.16 L 6.462000000000001 12.996 L 6.4 12.916 L 6.538 12.902000000000001 C 6.577 12.985000000000001 6.615 13.068000000000001 6.655 13.15 z M 6.5150000000000015 8.372 L 6.4 8.258 C 6.5120000000000005 8.335999999999999 6.438000000000001 8.26 6.514 8.373 z M 6.530000000000001 12.622 L 6.400000000000001 12.352 L 6.455000000000001 12.13 L 6.487000000000001 12.128 L 6.655000000000001 12.644 C 6.613345870436322 12.636595610609026 6.571679143172983 12.629262266610679 6.529999999999974 12.621999999999995 z M 5.863000000000001 15.625 L 5.891000000000001 15.659 L 5.8 16 C 5.582418831954191 15.909692039627025 5.425178936097518 15.715587287803954 5.382 15.484 L 5.8629999999999995 15.626 z M 5.127 16 L 5.382 16.226 C 5.218999999999999 16.154 5.209 16.157 5.127 15.999999999999998 z M 5.567 13.712 L 5.597 13.935 L 5.382000000000001 13.677 L 5.567 13.712 z M 5.315 14.919 L 5.127000000000001 14.452 C 5.3500000000000005 14.537 5.524000000000001 14.792 5.6370000000000005 14.968 L 5.315 14.919 z M 5.515000000000001 10.325 L 5.578 10.322999999999999 L 5.392 10.581 C 5.362 10.517 5.399 10.456 5.502000000000001 10.381 L 5.515000000000001 10.324 z M 5.382000000000001 12.543 L 5.331 12.645 L 5.1850000000000005 12.532 C 5.165642800375509 12.491011258269516 5.146309463766211 12.45001125132222 5.127000000000008 12.409000000000024 L 5.327000000000001 12.387 L 5.382000000000001 12.543000000000001 z M 3.6 14.71 C 4.11 15.042000000000002 4.977 15.350000000000001 5.127 16 C 4.522334895625627 15.6980401319274 3.9987435830760667 15.255713482818734 3.5999999999999996 14.71 z M 4.923 14.46 L 5.127 14.71 L 4.617999999999999 14.452000000000002 L 4.922999999999999 14.46 z M 6.787 15.226 L 6.4 14.836 L 7.077 14.194 L 7.164 14.901000000000002 L 6.787 15.226 z M 7.164 15.657 L 7.231 15.489 L 7.321 15.484 L 7.418 15.742 L 7.164 15.657 z M 7.507 14.71 L 7.417999999999999 14.452000000000002 L 7.602999999999999 14.486000000000002 L 7.506999999999999 14.710000000000003 z M 7.164 6.020000000000001 L 7.1659999999999995 5.997000000000002 C 7.249999999999999 5.977000000000002 7.334 5.957000000000002 7.417999999999999 5.935000000000001 L 7.241999999999999 6.193000000000001 L 7.163999999999999 6.020000000000001 z M 4.5969999999999995 11.355 L 4.364 10.839 C 4.663 10.904 4.614 11.117 4.5969999999999995 11.355 z M 3.9739999999999993 11.613 C 3.7559999999999993 11.462 3.616999999999999 11.161 3.599999999999999 10.838999999999999 C 4.046999999999999 10.943999999999999 4.021999999999999 11.12 4.109999999999999 11.527999999999999 L 3.9739999999999993 11.613 z M 3.7109999999999994 10.266 C 3.3859999999999992 9.959 3.8589999999999995 8.731 4.066999999999999 8.448 C 4.177 8.309000000000001 4.3149999999999995 8.312000000000001 4.496999999999999 8.258000000000001 L 4.6179999999999986 8.289000000000001 C 4.3119999999999985 8.831000000000001 4.105999999999998 9.569 4.032999999999999 10.323 L 3.7109999999999985 10.266 z M 3.2359999999999993 14.452 L 3.390999999999999 14.713 L 3.251999999999999 15.037999999999998 L 3.171999999999999 15.123 C 3.2859999999999987 15.139 3.311999999999999 15.040999999999999 3.481999999999999 14.902 C 3.811999999999999 15.437 4.315999999999999 15.949 4.871999999999999 16.24 L 4.568999999999999 16.773999999999997 L 3.648999999999999 16.182 C 3.543999999999999 15.986999999999998 3.688999999999999 15.762999999999998 3.519999999999999 15.643999999999998 C 3.366999999999999 15.535999999999998 3.169999999999999 15.691999999999998 3.0139999999999993 15.644999999999998 L 2.5819999999999994 15.248999999999997 C 2.7089999999999996 14.964999999999996 2.8309999999999995 14.686999999999998 3.0819999999999994 14.541999999999996 L 3.2359999999999993 14.451999999999996 z M 2.3559999999999994 11.606 C 2.39070669401251 11.348642506007437 2.4404585676811066 11.093538939008731 2.5049999999999994 10.842000000000002 L 2.5389999999999993 10.839 L 2.6719999999999993 11.606 L 2.741999999999999 12.006 C 2.9419999999999993 12.564 3.1439999999999992 13.121 3.345999999999999 13.677 C 2.861999999999999 13.413 2.5629999999999993 12.802 2.605999999999999 11.98 C 2.489999999999999 12.245000000000001 2.585999999999999 12.662 2.6239999999999988 12.896 C 2.3269999999999986 12.644 2.288999999999999 12.143 2.3549999999999986 11.606000000000002 z M 1.9139999999999995 11.871 C 1.8677511691871163 11.773369350182241 1.8386594453878105 11.668503834161488 1.8279999999999994 11.561 C 1.8137559837748756 11.416274957498086 1.8150970074463455 11.270438633225789 1.8319999999999999 11.126000000000001 L 1.8759999999999994 11.033999999999999 L 2.0729999999999995 10.838999999999999 L 1.9619999999999995 11.559999999999999 L 1.9139999999999995 11.87 z M 19.636 14.451 L 19.127 14.255 L 19.621 14.194 L 19.636 14.452000000000002 z M 6.165999999999999 18.651 L 6.298999999999999 18.581 L 6.144999999999999 18.838 L 6.164999999999998 18.652 z M 2.327 9.807 L 2.11 9.787 C 1.8399999999999999 9.698 1.5869999999999997 9.383000000000001 1.5639999999999998 9.033000000000001 C 1.9769999999999999 9.070000000000002 2.117 9.266000000000002 2.3209999999999997 9.505 C 2.3229999999999995 9.605 2.3259999999999996 9.706000000000001 2.3269999999999995 9.807 z M 2.297 9.786 C 2.327 9.229 1.9020000000000001 8.881 1.35 8.895999999999999 C 1.4440000000000002 8.113999999999999 2.124 7.713999999999999 2.73 7.450999999999999 L 2.847 7.441999999999998 C 2.746 8.423999999999998 2.823 9.269999999999998 2.456 10.119999999999997 C 2.185 10.745999999999997 1.224 10.733999999999998 1.276 11.699999999999998 L 1.283 11.779999999999998 C 1.42 13.063999999999998 2.816 13.324999999999998 3.009 14.453999999999997 C 0.9390000000000001 15.506999999999998 3.4619999999999997 19.931999999999995 5.099 17.333 C 5.393 17.375 5.654 17.508 6.019 17.38 C 6.189 17.285999999999998 6.222 17.209999999999997 6.288 17.014 L 6.873 17.317 L 6.9030000000000005 17.391000000000002 C 6.367000000000001 17.807000000000002 5.989000000000001 18.378 5.413 18.768 L 5.468 18.61 L 5.318 18.583 L 5.234999999999999 18.628 L 5.159999999999999 18.978 C 5.488999999999999 19.314 6.485999999999999 18.099 6.778 17.861 C 6.6129999999999995 18.438000000000002 6.205 18.735 5.978 19.263 L 6.048 19.335 C 6.478 19.027 7.005 18.155 7.085 17.492 L 7.729 17.599 C 6.922 18.69 4.849 21.09 3.759 21.731 C 3.925 21.21 4.189 20.812 4.3229999999999995 20.384 L 4.244999999999999 20.39 C 4.2217504146213924 20.36591872025346 4.198416939468227 20.341918574381634 4.175000000000001 20.318 C 3.909999999999999 20.84 3.472999999999999 21.207 3.3949999999999987 21.911 C 3.4415994558760197 21.980777850239736 3.5005699759694386 22.041442925508253 3.568999999999999 22.09 C 4.864999999999998 21.874 7.028999999999998 18.617 8.062999999999999 17.727 C 7.782999999999999 20.537 6.276999999999999 20.975 4.970999999999998 22.677 C 6.157999999999999 22.085 6.877999999999998 20.575 7.892999999999999 19.737 C 7.781 20.91 7.502 23.533 6.8 24 L 6.9159999999999995 23.991 C 7.704 23.501 7.749999999999999 21.486 8.013 20.456 L 8.125 19.373 L 9.25 17.793 L 9.332 17.747999999999998 C 9.458 18.142999999999997 10.028 18.572 10.645000000000001 18.456999999999997 L 11.088000000000001 18.270999999999997 L 12.200000000000001 18.686999999999998 C 12.346000000000002 20.287 12.290000000000001 21.183999999999997 11.277000000000001 22.401999999999997 C 12.312000000000001 21.872999999999998 12.692 19.834999999999997 12.347000000000001 18.752999999999997 C 14.754000000000001 19.031999999999996 14.657000000000002 18.219999999999995 14.201 16.466999999999995 L 14.624 16.473999999999997 C 14.546000000000001 16.356999999999996 14.335 16.443999999999996 14.174000000000001 16.353999999999996 C 14.101 16.306999999999995 14.115000000000002 16.315999999999995 14.070000000000002 16.245999999999995 C 14.642000000000001 15.600999999999996 16.020000000000003 16.241999999999994 15.730000000000002 17.312999999999995 C 16.126 16.424999999999994 15.251000000000003 15.634999999999994 14.408000000000001 15.952999999999996 C 14.768 15.525999999999996 15.204 15.174999999999995 15.432000000000002 14.609999999999996 L 15.514000000000003 14.565999999999995 L 17.494000000000003 16.645999999999994 L 17.611000000000004 16.636999999999993 L 17.701000000000004 16.514999999999993 C 17.071000000000005 15.768999999999993 16.442000000000004 15.021999999999993 15.814000000000004 14.274999999999993 L 16.016000000000005 14.182999999999993 C 16.106546590677617 14.089579009734377 16.23605786595868 14.044676819737218 16.365000000000006 14.061999999999992 C 16.331625404619867 14.045415985435788 16.298291968879454 14.028749267565583 16.265000000000008 14.011999999999995 C 17.276000000000003 14.112999999999992 18.568000000000005 14.955999999999992 19.623000000000005 14.683999999999992 C 19.720000000000006 14.514999999999992 19.725000000000005 14.423999999999992 19.666000000000004 14.258999999999991 C 20.790000000000003 14.286999999999992 22.812000000000005 13.91099999999999 23.456000000000003 13.364999999999991 C 21.726000000000003 13.72799999999999 19.778000000000002 13.850999999999992 18.190000000000005 13.638999999999992 L 16.783000000000005 13.473999999999993 L 16.704000000000004 13.479999999999993 L 17.083000000000006 12.799999999999994 C 18.243000000000006 12.777999999999993 21.285000000000004 12.748999999999993 21.900000000000006 12.020999999999994 L 21.764000000000006 11.838999999999993 L 21.234000000000005 11.762999999999993 C 21.188000000000006 11.830999999999992 21.181000000000004 11.894999999999992 21.174000000000007 11.959999999999992 L 21.59400000000001 12.004999999999992 C 20.68200000000001 12.234999999999992 18.14200000000001 12.719999999999992 17.31300000000001 12.436999999999992 C 17.22600000000001 12.330999999999992 17.29000000000001 11.962999999999992 17.29400000000001 11.697999999999992 C 17.295482257379714 11.650583590236675 17.293476853404734 11.603122362828756 17.28800000000001 11.555999999999992 C 18.48000000000001 11.199999999999992 19.36500000000001 10.397999999999993 19.728000000000012 9.187999999999992 C 19.935000000000013 8.494999999999992 19.798000000000012 7.584999999999992 20.246000000000013 7.152999999999992 C 20.532000000000014 7.177999999999992 20.590000000000014 7.2989999999999915 20.80000000000001 7.380999999999991 C 20.68900000000001 7.226999999999991 20.530000000000012 7.140999999999991 20.33100000000001 7.070999999999992 L 19.95800000000001 7.327999999999991 C 19.617000000000008 7.459999999999991 19.26000000000001 7.114999999999991 18.681000000000008 7.3839999999999915 C 18.21100000000001 6.981999999999991 17.94600000000001 6.3469999999999915 17.311000000000007 6.103999999999991 L 17.246000000000006 5.993999999999991 L 18.016000000000005 5.244999999999991 C 17.764000000000006 5.4559999999999915 17.507000000000005 5.704999999999991 17.250000000000007 5.954999999999991 L 16.73400000000001 5.723999999999991 L 16.704000000000008 5.648999999999991 C 17.29200000000001 5.232999999999991 17.814000000000007 5.078999999999991 18.483000000000008 5.210999999999991 C 18.514000000000006 5.272999999999992 18.547000000000008 5.333999999999992 18.579000000000008 5.395999999999991 C 18.54800000000001 5.448999999999991 18.520000000000007 5.463999999999991 18.49300000000001 5.478999999999991 L 18.268000000000008 5.418999999999992 C 18.36500000000001 5.475999999999992 18.466000000000008 5.493999999999992 18.567000000000007 5.511999999999992 L 18.652000000000008 5.428999999999991 L 18.66500000000001 5.312999999999992 C 18.51900000000001 5.182999999999992 18.47400000000001 5.0889999999999915 18.18700000000001 5.078999999999992 L 18.32400000000001 4.876999999999992 C 17.99600000000001 5.102999999999992 17.33000000000001 5.162999999999991 17.00400000000001 5.358999999999992 L 17.75800000000001 4.764999999999992 L 17.84800000000001 4.643999999999991 L 16.45300000000001 5.475999999999991 C 16.155000000000012 5.4559999999999915 15.83800000000001 5.315999999999991 15.67700000000001 5.148999999999991 C 15.65133138221992 5.150974881366955 15.62566470326258 5.152974882324664 15.600000000000025 5.154999999999984 L 17.25600000000001 4.034999999999991 L 17.22900000000001 3.9219999999999913 C 16.60100000000001 4.287999999999991 15.97200000000001 4.653999999999991 15.34500000000001 5.020999999999991 L 14.74300000000001 4.872999999999991 L 14.799000000000008 4.331999999999991 L 19.116000000000007 0.9419999999999908 L 19.19300000000001 0.9359999999999908 L 19.13200000000001 0.7869999999999908 C 18.97200000000001 0.7109999999999909 18.31500000000001 1.243999999999991 18.067000000000007 1.4029999999999907 C 17.111000000000008 2.0159999999999907 16.26600000000001 2.7789999999999906 15.326000000000008 3.3329999999999904 C 15.714000000000008 2.8399999999999905 16.424000000000007 2.3489999999999904 16.54200000000001 1.6309999999999905 L 16.352000000000007 1.6069999999999904 L 16.056000000000008 1.8589999999999904 L 16.378000000000007 1.7189999999999905 C 16.17000000000001 2.3519999999999905 15.228000000000007 3.4819999999999904 14.696000000000007 3.8399999999999905 L 14.634000000000007 3.6909999999999905 C 14.980000000000008 3.1089999999999907 15.321000000000007 2.3259999999999907 15.161000000000007 1.5789999999999904 L 14.871000000000008 1.4089999999999905 L 14.560000000000008 1.4319999999999904 C 14.759000000000007 1.5109999999999904 14.894000000000007 1.5299999999999905 15.040000000000008 1.6269999999999905 C 15.133000000000008 2.35099999999999 14.777000000000008 2.8409999999999904 14.585000000000008 3.4269999999999907 L 14.503000000000007 3.4709999999999908 C 14.375000000000007 3.2339999999999907 14.383000000000008 3.119999999999991 14.120000000000008 3.0769999999999906 L 14.097000000000008 2.9249999999999905 L 14.277000000000008 2.6809999999999903 L 14.401000000000009 2.5949999999999904 C 14.443000000000008 2.6749999999999905 14.44500000000001 2.6459999999999906 14.458000000000009 2.7829999999999906 C 14.494855943804003 2.7241254584785666 14.515231663376504 2.6564366273563578 14.517000000000008 2.5869999999999904 L 14.370000000000008 2.5209999999999906 L 13.981000000000009 2.9329999999999905 C 13.65600000000001 2.7159999999999904 13.298000000000009 2.4879999999999907 12.841000000000008 2.4029999999999907 C 13.100000000000009 1.8659999999999908 13.887000000000008 1.0029999999999908 13.481000000000009 0.32199999999999074 C 12.985000000000008 -0.5060000000000092 11.292000000000009 0.44799999999999074 10.672000000000008 1.1049999999999907 C 10.600067344581843 1.178258543523838 10.537582151154169 1.2602283671601415 10.486000000000008 1.3489999999999913 C 10.526000000000007 1.3169999999999906 10.590000000000007 1.2669999999999906 10.672000000000008 1.2049999999999907 C 11.284000000000008 0.7489999999999908 12.913000000000007 -0.3430000000000093 13.266000000000007 0.5299999999999907 C 13.636000000000006 1.0169999999999906 12.927000000000007 1.9539999999999906 12.734000000000007 2.3349999999999906 C 12.074000000000007 2.2679999999999905 11.384000000000007 2.2049999999999907 10.674000000000007 2.2189999999999905 C 9.926695071932288 2.225515889598344 9.184660088362921 2.3448618160788315 8.473000000000006 2.5729999999999897 C 8.113000000000007 2.6919999999999904 6.577000000000006 3.6119999999999903 6.518000000000006 3.5999999999999908 L 5.818000000000006 2.921999999999991 L 4.354000000000006 2.186999999999991 L 4.346000000000006 2.263999999999991 L 4.260000000000006 2.346999999999991 L 6.136000000000006 3.934999999999991 L 5.850000000000007 4.109999999999991 C 5.0780000000000065 3.5249999999999915 4.5460000000000065 3.1699999999999915 3.397000000000007 2.8709999999999916 L 3.203000000000007 2.8859999999999917 C 3.8740000000000068 3.347999999999992 4.550000000000007 3.770999999999992 5.225000000000007 4.194999999999991 L 5.3600000000000065 4.376999999999992 C 4.878000000000006 4.579999999999992 4.674000000000007 5.001999999999992 4.267000000000007 5.263999999999992 C 3.6310000000000064 4.959999999999992 3.0420000000000065 4.683999999999992 2.2710000000000066 4.4509999999999925 L 2.2170000000000067 4.608999999999993 L 3.6610000000000067 5.538999999999993 L 3.7390000000000065 5.532999999999992 L 3.4900000000000064 5.704999999999992 C 3.375000000000006 6.091999999999992 3.1500000000000066 6.540999999999992 2.9620000000000064 7.086999999999992 C 2.242000000000006 7.672999999999992 1.3090000000000064 7.637999999999992 1.1640000000000064 8.831999999999992 C 0.9340000000000064 8.894999999999992 0.7720000000000063 8.914999999999992 0.5620000000000064 9.068999999999992 L 0.5460000000000064 9.223999999999991 C 0.6780000000000064 9.40799999999999 1.8470000000000062 9.902999999999992 2.1260000000000066 9.950999999999992 L 2.2980000000000067 9.784999999999991 z M 10.837 1.5299999999999994 L 10.943999999999999 1.5499999999999994 L 10.800999999999998 1.5319999999999994 C 10.775999999999998 1.5319999999999994 10.750999999999998 1.5339999999999994 10.726999999999999 1.5349999999999993 C 10.839999999999998 1.3249999999999993 11.171999999999999 1.2729999999999992 11.490999999999998 1.2959999999999994 L 11.468999999999998 1.4479999999999993 L 10.844999999999997 1.4789999999999992 L 10.836999999999998 1.5289999999999992 z M 11.283 1.8069999999999995 L 11.583 1.7089999999999994 C 11.713000000000001 1.4929999999999994 11.787 1.2639999999999993 11.721 1.0549999999999993 C 11.412 0.9939999999999993 11.234 1.0689999999999993 10.945 1.1909999999999994 C 10.89240707757394 1.2765078147100506 10.840073503749071 1.362174875047595 10.788000000000004 1.4480000000000115 L 10.728 1.5479999999999996 C 10.746481508745832 1.5694629355914436 10.766537064408556 1.5895184912541669 10.788 1.6079999999999997 C 10.886000000000001 1.6879999999999997 11.004 1.7159999999999997 11.221 1.6979999999999997 C 11.281 1.7999999999999998 11.211 1.7549999999999997 11.104 1.7829999999999997 L 11.283999999999999 1.8069999999999997 z M 18.686 4.129999999999999 L 18.364 4.189999999999999 L 18.562 4.175999999999998 L 18.789 4.273999999999998 L 18.445 4.903999999999998 C 18.622 4.6949999999999985 18.798000000000002 4.546999999999998 18.873 4.229999999999998 L 18.686 4.129999999999998 z M 16.836 14.194999999999999 C 16.756 14.051999999999998 16.668999999999997 13.957999999999998 16.581999999999997 13.935999999999998 C 16.659 14.008999999999999 16.747999999999998 14.094999999999999 16.836 14.194999999999999 z M 15.817999999999998 17.290999999999997 L 15.563999999999998 17.438999999999997 L 15.758999999999999 17.420999999999996 L 15.818999999999999 17.290999999999997 z M 16.836 14.194999999999997 C 17.095 14.486999999999997 17.288999999999998 15.046999999999997 17.232999999999997 15.484999999999996 C 17.526999999999997 14.849999999999996 17.191999999999997 14.453999999999995 16.836 14.194999999999997 Z" stroke-linecap="round" />
</g>
</svg>