<?xml version="1.0" encoding="UTF-8" standalone="no" ?>
<!DOCTYPE svg PUBLIC "-//W3C//DTD SVG 1.1//EN" "http://www.w3.org/Graphics/SVG/1.1/DTD/svg11.dtd">
<svg xmlns="http://www.w3.org/2000/svg" xmlns:xlink="http://www.w3.org/1999/xlink" version="1.1" width="1080" height="1080" viewBox="0 0 1080 1080" xml:space="preserve">
<desc>Created with Fabric.js 5.2.4</desc>
<defs>
</defs>
<rect x="0" y="0" width="100%" height="100%" fill="transparent"></rect>
<g transform="matrix(1 0 0 1 540 540)" id="54703570-a7c7-40f4-8b31-b9e305183212"  >
<rect style="stroke: none; stroke-width: 1; stroke-dasharray: none; stroke-linecap: butt; stroke-dashoffset: 0; stroke-linejoin: miter; stroke-miterlimit: 4; fill: rgb(255,255,255); fill-rule: nonzero; opacity: 1; visibility: hidden;" vector-effect="non-scaling-stroke"  x="-540" y="-540" rx="0" ry="0" width="1080" height="1080" />
</g>
<g transform="matrix(1 0 0 1 540 540)" id="78c39ba0-d8a4-4356-8935-b854fda7288d"  >
</g>
<g transform="matrix(13.21 0 0 13.45 540.25 538.2)" id="3ecd1173-ff61-43c3-8930-abc448be28d5"  >
<circle style="stroke: rgb(0,0,0); stroke-width: 0; stroke-dasharray: none; stroke-linecap: butt; stroke-dashoffset: 0; stroke-linejoin: miter; stroke-miterlimit: 4; fill: rgb(255,255,255); fill-rule: nonzero; opacity: 1;" vector-effect="non-scaling-stroke"  cx="0" cy="0" r="35" />
</g>
<g transform="matrix(5.26 2.4 -2.4 5.26 313.1 389.68)" id="3f1cbb74-2f79-4046-8ec7-cd4141253cb9"  >
<path style="stroke: rgb(0,0,0); stroke-width: 0; stroke-dasharray: none; stroke-linecap: butt; stroke-dashoffset: 0; stroke-linejoin: miter; stroke-miterlimit: 4; fill: rgb(255,255,255); fill-rule: nonzero; opacity: 1;" vector-effect="non-scaling-stroke"  transform=" translate(-50, -50)" d="M 94.75 50 C 94.75 56.213 89.514 61.25 83.054 61.25 L 16.946 61.25 C 10.486 61.25 5.25 56.213 5.25 50 L 5.25 50 C 5.25 43.787 10.486 38.75 16.945999999999998 38.75 L 83.053 38.75 C 89.514 38.75 94.75 43.787 94.75 50 L 94.75 50 z" stroke-linecap="round" />
</g>
<g transform="matrix(4.43 -2.44 2.44 4.43 798.99 383.9)" id="efbba712-4a17-4983-8d44-9e7b91abdf48"  >
<path style="stroke: rgb(0,0,0); stroke-width: 0; stroke-dasharray: none; stroke-linecap: butt; stroke-dashoffset: 0; stroke-linejoin: miter; stroke-miterlimit: 4; fill: rgb(255,255,255); fill-rule: nonzero; opacity: 1;" vector-effect="non-scaling-stroke"  transform=" translate(-50, -50)" d="M 94.75 50 C 94.75 56.213 89.514 61.25 83.054 61.25 L 16.946 61.25 C 10.486 61.25 5.25 56.213 5.25 50 L 5.25 50 C 5.25 43.787 10.486 38.75 16.945999999999998 38.75 L 83.053 38.75 C 89.514 38.75 94.75 43.787 94.75 50 L 94.75 50 z" stroke-linecap="round" />
</g>
<g transform="matrix(0 6.91 -6.91 0 540 760.22)" id="1dbb22fe-651c-4152-973b-8c556593631e"  >
<path style="stroke: rgb(0,0,0); stroke-width: 0; stroke-dasharray: none; stroke-linecap: butt; stroke-dashoffset: 0; stroke-linejoin: miter; stroke-miterlimit: 4; fill: rgb(255,255,255); fill-rule: nonzero; opacity: 1;" vector-effect="non-scaling-stroke"  transform=" translate(-50, -50)" d="M 94.75 50 C 94.75 56.213 89.514 61.25 83.054 61.25 L 16.946 61.25 C 10.486 61.25 5.25 56.213 5.25 50 L 5.25 50 C 5.25 43.787 10.486 38.75 16.945999999999998 38.75 L 83.053 38.75 C 89.514 38.75 94.75 43.787 94.75 50 L 94.75 50 z" stroke-linecap="round" />
</g>
<g transform="matrix(44.14 0 0 44.14 539.62 540.35)"  >
<path style="stroke: rgb(0,0,0); stroke-width: 0; stroke-dasharray: none; stroke-linecap: butt; stroke-dashoffset: 0; stroke-linejoin: miter; stroke-miterlimit: 4; fill: rgb(66,133,244); fill-rule: nonzero; opacity: 1;" vector-effect="non-scaling-stroke"  transform=" translate(-12, -12)" d="M 12.135 0.003 C 11.6383919131268 -0.021726621841645512 11.145234469896266 0.09774250525082134 10.714999999999998 0.34700000000000075 L 2.55 5.06 C 2.1516077060196803 5.291353682413097 1.8225195035749788 5.625276339038518 1.5969999999999993 6.027000000000001 L 5.554 8.197 C 5.704605744703619 7.955212014742263 5.911495713644718 7.753468562441489 6.157 7.608999999999999 L 11.108 4.748999999999999 C 11.652601107132952 4.43481240258016 12.323398892867049 4.434812402580159 12.868 4.748999999999998 L 17.819 7.608999999999998 C 18.023426627575223 7.72548048807742 18.202313271578962 7.88192127941149 18.345 8.068999999999999 L 22.266 5.8039999999999985 C 22.050954247193772 5.499951875340618 21.772563707406324 5.246125206710885 21.45 5.059999999999998 L 13.291 0.347 C 12.939141178806263 0.14450931527186325 12.544420288638651 0.028011830326560905 12.139000000000003 0.007000000000000117 Z M 11.99 4.915 C 11.751288804167157 4.9149375322940365 11.516766020002581 4.977706865702791 11.31 5.097000000000001 L 6.36 7.953 C 6.176423777892214 8.060093962385457 6.020839491048565 8.209167012555033 5.906000000000001 8.388 L 7.8260000000000005 9.443 C 7.910038937241828 9.331650077203285 8.0154243175026 9.238163046326795 8.136000000000001 9.168 L 11.476 7.239999999999999 C 11.801345481346209 7.0528735456490494 12.201654518653793 7.0528735456490494 12.527000000000001 7.239999999999999 L 15.863000000000001 9.168 C 15.951612883246028 9.222372631776402 16.03179513178295 9.289415772359796 16.101000000000003 9.366999999999999 L 16.119000000000003 9.357 L 16.117000000000004 9.354999999999999 L 17.994000000000003 8.274999999999999 C 17.890424941683342 8.145739649219806 17.763995248704337 8.036596589865276 17.621000000000002 7.9529999999999985 L 12.671000000000003 5.092999999999998 C 12.463901251119024 4.974972143764277 12.229366205261787 4.913579146466354 11.991000000000003 4.914999999999998 Z M 22.422 6.064 L 18.502000000000002 8.324 C 18.633047560432264 8.57462513822437 18.70165750099105 8.85318149689304 18.702 9.136 L 18.702 14.850999999999999 C 18.702 15.478 18.37 16.061 17.822000000000003 16.378999999999998 L 12.872000000000003 19.238999999999997 C 12.674457012449944 19.350924122629106 12.45713413537499 19.423591459651043 12.232000000000003 19.452999999999996 L 12.232000000000003 23.976999999999997 C 12.603469890192477 23.950414060652747 12.964763898998804 23.843629334726042 13.291 23.663999999999998 L 21.453000000000003 18.950999999999997 C 22.24997861032751 18.49110259473837 22.741272829487748 17.641152161280395 22.742000000000004 16.720999999999997 L 22.742000000000004 7.297 C 22.739974916309606 6.867564403282933 22.63066333600985 6.445442954829784 22.424000000000003 6.069000000000001 Z M 1.4849999999999994 6.302 C 1.3444060072919295 6.613673082266927 1.2672408018316343 6.950208559825041 1.2579999999999991 7.292 L 1.2579999999999993 16.722 C 1.2579999999999993 17.64 1.7489999999999992 18.489 2.5509999999999993 18.951 L 10.713000000000001 23.664 C 11.086786338664744 23.876736436235692 11.507984663181883 23.99226511953182 11.938 24 L 11.938 19.469 C 11.645107244784278 19.461184138715826 11.358793209669638 19.380411271666677 11.105 19.234 L 6.156 16.38 C 5.612188893341582 16.063414286922768 5.278054287427372 15.481250458146357 5.279 14.851999999999999 L 5.279 9.136 C 5.27814803959619 8.904278317809434 5.3226509942461 8.674629483127458 5.41 8.459999999999999 Z M 18.155 8.524999999999999 L 16.265 9.616999999999999 C 16.34076795423919 9.758911947889251 16.383176371234953 9.916233494809024 16.389 10.077 L 16.389 13.933 C 16.389 14.311 16.189 14.653 15.863 14.84 L 12.527 16.77 C 12.434644607966703 16.82038212617667 12.335179262890119 16.856459386933263 12.232 16.877 L 12.232 19.046999999999997 C 12.383999999999999 19.019999999999996 12.536 18.968999999999998 12.671999999999999 18.889999999999997 L 17.621 16.031 C 18.04246859604813 15.787665845036708 18.30178884108242 15.337668949241914 18.301 14.850999999999999 L 18.301 9.136 C 18.299750768331844 8.925002870903626 18.24942386555973 8.717190422041908 18.154 8.529 Z M 5.768000000000001 8.655 C 5.709847184501901 8.808699872946937 5.68003202902891 8.971666802293626 5.680000000000001 9.136 L 5.680000000000001 14.850999999999999 C 5.679211158917579 15.337668949241914 5.938531403951867 15.787665845036708 6.359999999999999 16.031 L 11.31 18.891 C 11.504000000000001 19.002999999999997 11.722000000000001 19.057 11.937000000000001 19.067999999999998 L 11.937000000000001 16.894 C 11.776291658826782 16.888625556510142 11.618943467857909 16.846552018490204 11.477 16.770999999999997 L 8.14 14.843 C 7.81344378640595 14.65684970669008 7.610737217813531 14.310876841498509 7.6080000000000005 13.935 L 7.6080000000000005 10.082 C 7.60836951722527 9.951496291415006 7.634537949386389 9.822353379451041 7.6850000000000005 9.702 L 7.651000000000001 9.689 z" stroke-linecap="round" />
</g>
</svg>