<?xml version="1.0" encoding="UTF-8" standalone="no" ?>
<!DOCTYPE svg PUBLIC "-//W3C//DTD SVG 1.1//EN" "http://www.w3.org/Graphics/SVG/1.1/DTD/svg11.dtd">
<svg xmlns="http://www.w3.org/2000/svg" xmlns:xlink="http://www.w3.org/1999/xlink" version="1.1" width="1080" height="1080" viewBox="0 0 1080 1080" xml:space="preserve">
<desc>Created with Fabric.js 5.2.4</desc>
<defs>
</defs>
<g transform="matrix(1 0 0 1 540 540)" id="4ea9a234-f194-4274-8e29-ecb8ef913782"  >
<rect style="stroke: none; stroke-width: 1; stroke-dasharray: none; stroke-linecap: butt; stroke-dashoffset: 0; stroke-linejoin: miter; stroke-miterlimit: 4; fill: rgb(255,255,255); fill-rule: nonzero; opacity: 1; visibility: hidden;" vector-effect="non-scaling-stroke"  x="-540" y="-540" rx="0" ry="0" width="1080" height="1080" />
</g>
<g transform="matrix(1 0 0 1 540 540)" id="0b9707af-11e0-4813-b52c-62232c162ce7"  >
</g>
<g transform="matrix(15.16 0 0 15.16 540.27 539.87)" id="ff1ae6e7-e527-474e-9b9d-42a2c1cfe134"  >
<circle style="stroke: rgb(0,0,0); stroke-width: 0; stroke-dasharray: none; stroke-linecap: butt; stroke-dashoffset: 0; stroke-linejoin: miter; stroke-miterlimit: 4; fill: rgb(255,255,255); fill-rule: nonzero; opacity: 1;" vector-effect="non-scaling-stroke"  cx="0" cy="0" r="35" />
</g>
<g transform="matrix(41.33 0 0 41.33 540.16 539.76)"  >
<path style="stroke: rgb(0,0,0); stroke-width: 0; stroke-dasharray: none; stroke-linecap: butt; stroke-dashoffset: 0; stroke-linejoin: miter; stroke-miterlimit: 4; fill: rgb(0,95,249); fill-rule: nonzero; opacity: 1;" vector-effect="non-scaling-stroke"  transform=" translate(-12, -12)" d="M 15.61 12 C 15.61 13.99 13.989999999999998 15.61 12 15.61 C 10.01 15.61 8.39 13.989999999999998 8.39 12 C 8.39 10.01 10.010000000000002 8.39 12 8.39 C 13.99 8.39 15.61 10.010000000000002 15.61 12 M 12 0 C 5.383 0 0 5.383 0 12 C 0 18.617 5.383 24 12 24 C 14.424 24 16.761 23.278 18.759999999999998 21.913 L 18.793999999999997 21.889 L 17.176999999999996 20.009999999999998 L 17.149999999999995 20.026999999999997 C 15.614607789602287 21.016215038884603 13.826464683245634 21.541547178674435 11.999999999999998 21.54 C 6.74 21.54 2.460000000000001 17.259999999999998 2.460000000000001 12 C 2.460000000000001 6.74 6.740000000000001 2.460000000000001 12 2.460000000000001 C 17.259999999999998 2.460000000000001 21.54 6.740000000000001 21.54 12 C 21.538596716570652 12.68941727903381 21.463164275096656 13.376690634685774 21.314999999999998 14.05 C 21.014 15.289000000000001 20.145999999999997 15.668000000000001 19.494999999999997 15.618 C 18.840999999999998 15.565 18.074999999999996 15.098 18.069 13.957 L 18.069 12 C 18.065693522721972 8.649392456663207 15.35060695309092 5.933858517355168 12 5.929999999999999 C 8.649002516067611 5.933307451815905 5.933307451815904 8.649002516067611 5.93 12 C 5.933307451815905 15.350997483932389 8.649002516067611 18.066692548184097 12 18.07 C 13.615736593929487 18.07392130741754 15.165228273739507 17.428179658529267 16.299999999999997 16.278 C 17.021803020929024 17.41145005543711 18.276274240083847 18.093474317658334 19.62 18.083 C 20.494 18.083 21.36 17.790999999999997 22.057000000000002 17.261999999999997 C 22.776000000000003 16.714999999999996 23.313000000000002 15.925999999999997 23.610000000000003 14.976999999999997 C 23.657000000000004 14.822999999999997 23.745000000000005 14.472999999999997 23.745000000000005 14.469999999999997 L 23.747000000000003 14.456999999999997 C 23.922000000000004 13.696999999999997 24.000000000000004 12.936999999999998 24.000000000000004 11.999999999999996 C 24.000000000000004 5.3829999999999965 18.617000000000004 -3.552713678800501e-15 12.000000000000004 -3.552713678800501e-15" stroke-linecap="round" />
</g>
</svg>