<?xml version="1.0" encoding="UTF-8" standalone="no" ?>
<!DOCTYPE svg PUBLIC "-//W3C//DTD SVG 1.1//EN" "http://www.w3.org/Graphics/SVG/1.1/DTD/svg11.dtd">
<svg xmlns="http://www.w3.org/2000/svg" xmlns:xlink="http://www.w3.org/1999/xlink" version="1.1" width="1080" height="1080" viewBox="0 0 1080 1080" xml:space="preserve">
<desc>Created with Fabric.js 5.2.4</desc>
<defs>
</defs>
<rect x="0" y="0" width="100%" height="100%" fill="transparent"></rect>
<g transform="matrix(1 0 0 1 540 540)" id="78c39ba0-d8a4-4356-8935-b854fda7288d"  >
</g>
<g transform="matrix(1 0 0 1 540 540)" id="54703570-a7c7-40f4-8b31-b9e305183212"  >
<rect style="stroke: none; stroke-width: 1; stroke-dasharray: none; stroke-linecap: butt; stroke-dashoffset: 0; stroke-linejoin: miter; stroke-miterlimit: 4; fill: rgb(255,255,255); fill-rule: nonzero; opacity: 1; visibility: hidden;" vector-effect="non-scaling-stroke"  x="-540" y="-540" rx="0" ry="0" width="1080" height="1080" />
</g>
<g transform="matrix(11.21 -0.87 0.16 2.08 459.3 148.64)" id="688aa2df-2f21-4d2d-b342-ca060a54cf20"  >
<rect style="stroke: rgb(0,0,0); stroke-width: 0; stroke-dasharray: none; stroke-linecap: butt; stroke-dashoffset: 0; stroke-linejoin: miter; stroke-miterlimit: 4; fill: rgb(255,255,255); fill-rule: nonzero; opacity: 1;" vector-effect="non-scaling-stroke"  x="-33.085" y="-33.085" rx="0" ry="0" width="66.17" height="66.17" />
</g>
<g transform="matrix(2.52 1.88 -1.25 1.67 826.13 159.13)" id="688aa2df-2f21-4d2d-b342-ca060a54cf20"  >
<rect style="stroke: rgb(0,0,0); stroke-width: 0; stroke-dasharray: none; stroke-linecap: butt; stroke-dashoffset: 0; stroke-linejoin: miter; stroke-miterlimit: 4; fill: rgb(255,255,255); fill-rule: nonzero; opacity: 1;" vector-effect="non-scaling-stroke"  x="-33.085" y="-33.085" rx="0" ry="0" width="66.17" height="66.17" />
</g>
<g transform="matrix(12.19 0 0 11.58 607.02 621.23)" id="688aa2df-2f21-4d2d-b342-ca060a54cf20"  >
<rect style="stroke: rgb(0,0,0); stroke-width: 0; stroke-dasharray: none; stroke-linecap: butt; stroke-dashoffset: 0; stroke-linejoin: miter; stroke-miterlimit: 4; fill: rgb(255,255,255); fill-rule: nonzero; opacity: 1;" vector-effect="non-scaling-stroke"  x="-33.085" y="-33.085" rx="0" ry="0" width="66.17" height="66.17" />
</g>
<g transform="matrix(45.98 0 0 44.13 539.81 540.07)"  >
<path style="stroke: rgb(0,0,0); stroke-width: 0; stroke-dasharray: none; stroke-linecap: butt; stroke-dashoffset: 0; stroke-linejoin: miter; stroke-miterlimit: 4; fill: rgb(0,0,0); fill-rule: nonzero; opacity: 1;" vector-effect="non-scaling-stroke"  transform=" translate(-12, -12)" d="M 4.459 4.208 C 5.205 4.814 5.484999999999999 4.768000000000001 6.887 4.674 L 20.102 3.8810000000000002 C 20.382 3.8810000000000002 20.149 3.601 20.056 3.555 L 17.86 1.968 C 17.439999999999998 1.642 16.878999999999998 1.268 15.805 1.361 L 3.01 2.295 C 2.5439999999999996 2.3409999999999997 2.4499999999999997 2.575 2.6359999999999997 2.761 z M 5.252 7.288 L 5.252 21.192 C 5.252 21.939 5.625 22.219 6.465999999999999 22.172 L 20.988999999999997 21.332 C 21.83 21.286 21.923999999999996 20.772000000000002 21.923999999999996 20.165 L 21.923999999999996 6.354 C 21.923999999999996 5.748 21.690999999999995 5.421 21.175999999999995 5.4670000000000005 L 5.998999999999995 6.354000000000001 C 5.438999999999995 6.401000000000001 5.251999999999995 6.681000000000001 5.251999999999995 7.287000000000001 z M 19.589 8.033 C 19.682 8.453 19.589 8.873 19.168999999999997 8.921 L 18.468999999999998 9.061 L 18.468999999999998 19.325 C 17.860999999999997 19.652 17.301 19.839 16.833999999999996 19.839 C 16.085999999999995 19.839 15.898999999999996 19.604999999999997 15.338999999999995 18.906 L 10.761999999999995 11.719999999999999 L 10.761999999999995 18.671999999999997 L 12.21 19 C 12.21 19 12.21 19.84 11.042000000000002 19.84 L 7.820000000000002 20.026 C 7.727000000000002 19.84 7.820000000000002 19.373 8.147000000000002 19.28 L 8.987000000000002 19.047 L 8.987000000000002 9.854 L 7.822 9.76 C 7.728 9.34 7.962 8.734 8.615 8.687 L 12.071 8.453999999999999 L 16.835 15.732999999999999 L 16.835 9.293 L 15.620000000000001 9.154 C 15.527000000000001 8.64 15.9 8.267 16.367 8.221 z M 1.936 1.035 L 15.246 0.05499999999999994 C 16.88 -0.08500000000000008 17.301000000000002 0.007999999999999938 18.328 0.7549999999999999 L 22.576999999999998 3.741 C 23.276999999999997 4.2540000000000004 23.511 4.394 23.511 4.954000000000001 L 23.511 21.332 C 23.511 22.358 23.137999999999998 22.966 21.831 23.058 L 6.372999999999999 23.992 C 5.392999999999999 24.039 4.924999999999999 23.899 4.411 23.245 L 1.2819999999999996 19.185000000000002 C 0.7219999999999995 18.438000000000002 0.48899999999999955 17.879 0.48899999999999955 17.225 L 0.48899999999999955 2.667 C 0.48899999999999955 1.8279999999999998 0.8629999999999995 1.1269999999999998 1.9359999999999995 1.035 z" stroke-linecap="round" />
</g>
</svg>